<svg xmlns="http://www.w3.org/2000/svg" viewBox="0 0 100 100" width="100" height="100">
  <defs>
    <linearGradient id="bg6" x1="0%" y1="0%" x2="100%" y2="100%">
      <stop offset="0%" stop-color="#E8F4F8"/>
      <stop offset="100%" stop-color="#CCE5ED"/>
    </linearGradient>
    <linearGradient id="goldAcc6" x1="0%" y1="0%" x2="100%" y2="100%">
      <stop offset="0%" stop-color="#D4AF37"/>
      <stop offset="100%" stop-color="#AA771C"/>
    </linearGradient>
  </defs>
  <circle cx="50" cy="50" r="48" fill="url(#bg6)" stroke="url(#goldAcc6)" stroke-width="2"/>
  <!-- Synthetic neural network nodes & graph edges -->
  <g stroke="#2D5A4C" stroke-width="0.8" opacity="0.4" fill="#B88A44">
    <line x1="25" y1="30" x2="35" y2="45"/>
    <line x1="35" y1="45" x2="25" y2="60"/>
    <line x1="75" y1="30" x2="65" y2="45"/>
    <line x1="65" y1="45" x2="75" y2="60"/>
    <circle cx="25" cy="30" r="2"/>
    <circle cx="35" cy="45" r="2"/>
    <circle cx="25" cy="60" r="2"/>
    <circle cx="75" cy="30" r="2"/>
    <circle cx="65" cy="45" r="2"/>
    <circle cx="75" cy="60" r="2"/>
  </g>
  <!-- Modern Short Hair Silhouette -->
  <circle cx="50" cy="38" r="14" fill="#1C2833"/>
  <!-- Modern Round Smart Frame Glasses -->
  <circle cx="45" cy="39" r="4.5" fill="none" stroke="#2D5A4C" stroke-width="1.3"/>
  <circle cx="55" cy="39" r="4.5" fill="none" stroke="#2D5A4C" stroke-width="1.3"/>
  <line x1="49.5" y1="39" x2="50.5" y2="39" stroke="#2D5A4C" stroke-width="1.3"/>
  <!-- Tech-Casual Shoulders (Sweater/Crewneck) -->
  <path d="M26 78 C26 60 38 56 50 56 C62 56 74 60 74 78 Z" fill="#2E4053"/>
  <path d="M44 56 Q50 62 56 56" fill="none" stroke="#FAF8F5" stroke-width="1.5"/>
  <circle cx="50" cy="50" r="46" fill="none" stroke="#FFFFFF" stroke-width="1" opacity="0.5"/>
</svg>
