<svg xmlns="http://www.w3.org/2000/svg" viewBox="0 0 100 100" width="100" height="100">
  <defs>
    <linearGradient id="bg4" x1="0%" y1="0%" x2="100%" y2="100%">
      <stop offset="0%" stop-color="#F4ECEF"/>
      <stop offset="100%" stop-color="#E2CFD8"/>
    </linearGradient>
    <linearGradient id="goldAcc4" x1="0%" y1="0%" x2="100%" y2="100%">
      <stop offset="0%" stop-color="#D4AF37"/>
      <stop offset="100%" stop-color="#AA771C"/>
    </linearGradient>
  </defs>
  <circle cx="50" cy="50" r="48" fill="url(#bg4)" stroke="url(#goldAcc4)" stroke-width="2"/>
  <!-- Entropic wave ripples -->
  <circle cx="50" cy="40" r="24" fill="none" stroke="#B88A44" stroke-width="0.8" stroke-dasharray="2,3" opacity="0.6"/>
  <circle cx="50" cy="40" r="32" fill="none" stroke="#2D5A4C" stroke-width="0.6" stroke-dasharray="3,4" opacity="0.5"/>
  <!-- Hair Silhouette -->
  <path d="M34 42 C34 26 66 26 66 42 C66 54 62 58 62 58 L38 58 C38 58 34 54 34 42 Z" fill="#21181C"/>
  <!-- Face -->
  <ellipse cx="50" cy="40" rx="11" ry="12" fill="#E8C5AC"/>
  <!-- Sleek Hair Part -->
  <path d="M37 36 C45 30 55 30 63 36 C55 24 45 24 37 36 Z" fill="#21181C"/>
  <!-- Blazer Shoulders -->
  <path d="M26 78 C26 62 38 58 50 58 C62 58 74 62 74 78 Z" fill="#583B4B"/>
  <polygon points="50,68 44,58 56,58" fill="#FBF8F5"/>
  <!-- Gold brooch -->
  <circle cx="40" cy="66" r="2" fill="#D4AF37"/>
  <circle cx="50" cy="50" r="46" fill="none" stroke="#FFFFFF" stroke-width="1" opacity="0.5"/>
</svg>
